<?xml version="1.0" encoding="utf-8"?>
<!-- Generator: Adobe Illustrator 16.0.3, SVG Export Plug-In . SVG Version: 6.00 Build 0)  -->
<!DOCTYPE svg PUBLIC "-//W3C//DTD SVG 1.1//EN" "http://www.w3.org/Graphics/SVG/1.1/DTD/svg11.dtd">
<svg version="1.1" id="Ebene_1" xmlns="http://www.w3.org/2000/svg" xmlns:xlink="http://www.w3.org/1999/xlink" x="0px" y="0px"
	 width="841.89px" height="595.281px" viewBox="0 0 841.89 595.281" enable-background="new 0 0 841.89 595.281"
	 xml:space="preserve">
<g>
	<g>
		<defs>
			<rect id="SVGID_2_" width="841.898" height="595.281"/>
		</defs>
		<clipPath id="SVGID_4_">
			<use xlink:href="#SVGID_2_"  overflow="visible"/>
		</clipPath>
		<g opacity="0.5" clip-path="url(#SVGID_4_)" enable-background="new    ">
			<g>
				<path id="SVGID_1_" opacity="0.5" fill="#71C1C2" enable-background="new    " d="M1211.701,224.183
					c46.078,46.078,46.078,120.779,0,166.855L794.566,808.173c-46.076,46.076-120.783,46.076-166.859,0.004L210.544,391.035
					c-46.077-46.072-46.077-120.782,0-166.854l417.159-417.139c46.08-46.077,120.783-46.073,166.854,0"/>
			</g>
		</g>
	</g>
</g>
<g>
	<g>
		<path id="SVGID_3_" fill="#27A987" d="M403.435,218.597c11.428,11.43,11.428,29.957,0,41.388L299.966,363.453
			c-11.43,11.43-29.96,11.43-41.388,0l-103.47-103.47c-11.429-11.43-11.429-29.96,0-41.388l103.469-103.469
			c11.429-11.429,29.958-11.427,41.387,0L403.435,218.597z"/>
	</g>
	<g>
		<defs>
			<path id="SVGID_5_" d="M403.435,218.597c11.428,11.43,11.428,29.957,0,41.388L299.966,363.453c-11.43,11.43-29.96,11.43-41.388,0
				l-103.47-103.47c-11.429-11.43-11.429-29.96,0-41.388l103.469-103.469c11.429-11.429,29.958-11.427,41.387,0L403.435,218.597z"/>
		</defs>
		<clipPath id="SVGID_6_">
			<use xlink:href="#SVGID_5_"  overflow="visible"/>
		</clipPath>
		<g opacity="0.3" clip-path="url(#SVGID_6_)">
			<path fill="#FFFFFF" d="M314.896,285.139l30.637,60.843L326.116,365.4l-96.008-194.823l22.653-22.653l195.037,95.792
				l-20.064,20.065l-61.273-30.205L314.896,285.139z M347.905,222.787l-56.094-27.615c-12.73-6.258-23.518-12.729-34.089-18.986
				l-0.432,0.432c6.473,10.787,12.945,22.006,18.986,33.656l27.832,56.312L347.905,222.787z"/>
		</g>
	</g>
</g>
<g>
	<g>
		<path id="XMLID_10_" fill="#71C1C2" d="M514.826,182.229c0,22.371-18.137,40.508-40.506,40.508h-40.51
			c-22.372,0-40.508-18.137-40.508-40.508v-40.507c0-22.372,18.136-40.51,40.508-40.51h40.51c22.369,0,40.506,18.138,40.506,40.51
			V182.229z"/>
	</g>
	<g>
		<defs>
			<path id="SVGID_7_" d="M514.826,182.229c0,22.371-18.137,40.508-40.506,40.508h-40.51c-22.372,0-40.508-18.137-40.508-40.508
				v-40.507c0-22.372,18.136-40.51,40.508-40.51h40.51c22.369,0,40.506,18.138,40.506,40.51V182.229z"/>
		</defs>
		<clipPath id="SVGID_8_">
			<use xlink:href="#SVGID_7_"  overflow="visible"/>
		</clipPath>
		<g opacity="0.3" clip-path="url(#SVGID_8_)">
			<path fill="#FFFFFF" d="M430.88,118.159c7.133-1.502,18.396-2.629,29.846-2.629c16.332,0,26.846,2.816,34.729,9.198
				c6.57,4.881,10.512,12.39,10.512,22.338c0,12.201-8.07,22.901-21.398,27.782v0.375c12.014,3.004,26.094,12.952,26.094,31.724
				c0,10.888-4.318,19.146-10.701,25.342c-8.822,8.071-23.088,11.825-43.736,11.825c-11.264,0-19.896-0.751-25.342-1.501V118.159
				H430.88z M447.212,169.968h14.828c17.27,0,27.406-9.011,27.406-21.212c0-14.829-11.264-20.648-27.781-20.648
				c-7.508,0-11.826,0.563-14.453,1.126V169.968z M447.212,230.6c3.189,0.563,7.883,0.75,13.703,0.75
				c16.893,0,32.473-6.194,32.473-24.59c0-17.27-14.828-24.403-32.662-24.403h-13.514V230.6z"/>
		</g>
	</g>
</g>
<g>
	<g>
		<path id="XMLID_12_" fill="#132531" d="M620.541,296.376c-13.557,13.557-35.537,13.557-49.094,0.001l-49.092-49.093
			c-13.557-13.557-13.557-35.536,0-49.094l49.094-49.092c13.555-13.557,35.535-13.557,49.092,0l49.092,49.093
			c13.559,13.556,13.559,35.536,0,49.093L620.541,296.376z"/>
	</g>
	<g>
		<defs>
			<path id="SVGID_9_" d="M620.541,296.376c-13.557,13.557-35.537,13.557-49.094,0.001l-49.092-49.093
				c-13.557-13.557-13.557-35.536,0-49.094l49.094-49.092c13.555-13.557,35.535-13.557,49.092,0l49.092,49.093
				c13.559,13.556,13.559,35.536,0,49.093L620.541,296.376z"/>
		</defs>
		<clipPath id="SVGID_10_">
			<use xlink:href="#SVGID_9_"  overflow="visible"/>
		</clipPath>
		<g opacity="0.3" clip-path="url(#SVGID_10_)">
			<path fill="#FFFFFF" d="M564.429,334.22c-7.025-2.342-18.732-9.365-30.734-21.365c-27.807-27.808-31.172-66.298,1.172-98.642
				c30.881-30.88,72.734-30.88,103.324-0.292c12.293,12.293,17.416,22.684,19.023,27.807l-13.465,7.316
				c-2.486-7.171-7.609-15.806-15.805-24.001c-23.125-23.124-53.271-23.709-79.178,2.195c-24.146,24.147-25.758,53.564-1.756,77.566
				c7.758,7.756,17.271,14.049,24.879,16.684L564.429,334.22z"/>
		</g>
	</g>
</g>
<g>
	<g>
		<path id="XMLID_14_" fill="#B18046" d="M611.408,484.666c-13.066,13.063-34.244,13.063-47.309,0l-47.309-47.307
			c-13.063-13.063-13.063-34.244,0-47.309l47.309-47.309c13.063-13.063,34.242-13.063,47.309,0.004l47.305,47.305
			c13.063,13.064,13.063,34.246,0,47.309L611.408,484.666z"/>
	</g>
	<g>
		<defs>
			<path id="SVGID_11_" d="M611.408,484.666c-13.066,13.063-34.244,13.063-47.309,0l-47.309-47.307
				c-13.063-13.063-13.063-34.244,0-47.309l47.309-47.309c13.063-13.063,34.242-13.063,47.309,0.004l47.305,47.305
				c13.063,13.064,13.063,34.246,0,47.309L611.408,484.666z"/>
		</defs>
		<clipPath id="SVGID_12_">
			<use xlink:href="#SVGID_11_"  overflow="visible"/>
		</clipPath>
		<g opacity="0.3" clip-path="url(#SVGID_12_)">
			<path fill="#FFFFFF" d="M636.035,462.949l-38.826-38.828l-36.012,36.012l43.271,43.271l-10.816,10.818l-56.166-56.166
				l99.883-99.885l53.943,53.943l-10.818,10.818l-41.049-41.051l-31.566,31.566l38.828,38.826L636.035,462.949z"/>
		</g>
	</g>
</g>
<g>
	<g>
		<path id="XMLID_15_" fill="#A49B94" d="M805.23,363.144c0,20.346-16.49,36.838-36.834,36.838h-73.674
			c-20.342,0-36.834-16.492-36.834-36.838v-73.67c0-20.342,16.492-36.833,36.834-36.833h73.674
			c20.344,0,36.834,16.491,36.834,36.833V363.144z"/>
	</g>
	<g>
		<defs>
			<path id="SVGID_13_" d="M805.23,363.144c0,20.346-16.49,36.838-36.834,36.838h-73.674c-20.342,0-36.834-16.492-36.834-36.838
				v-73.67c0-20.342,16.492-36.833,36.834-36.833h73.674c20.344,0,36.834,16.491,36.834,36.833V363.144z"/>
		</defs>
		<clipPath id="SVGID_14_">
			<use xlink:href="#SVGID_13_"  overflow="visible"/>
		</clipPath>
		<g opacity="0.3" clip-path="url(#SVGID_14_)">
			<path fill="#FFFFFF" d="M690.806,270.83h93.033v18.709h-70.734v57.408h65.354V365.4h-65.354v78.168h-22.299V270.83z"/>
		</g>
	</g>
</g>
<g>
	<g>
		<path id="XMLID_13_" fill="#62281C" d="M547.195,302.396c11.43,11.432,11.43,29.961,0,41.391l-62.082,62.08
			c-11.43,11.43-29.961,11.43-41.391,0l-62.081-62.082c-11.43-11.428-11.43-29.957,0-41.389l62.081-62.08
			c11.432-11.429,29.961-11.429,41.391-0.001L547.195,302.396z"/>
	</g>
	<g>
		<defs>
			<path id="SVGID_15_" d="M547.195,302.396c11.43,11.432,11.43,29.961,0,41.391l-62.082,62.08c-11.43,11.43-29.961,11.43-41.391,0
				l-62.081-62.082c-11.43-11.428-11.43-29.957,0-41.389l62.081-62.08c11.432-11.429,29.961-11.429,41.391-0.001L547.195,302.396z"
				/>
		</defs>
		<clipPath id="SVGID_16_">
			<use xlink:href="#SVGID_15_"  overflow="visible"/>
		</clipPath>
		<g opacity="0.3" clip-path="url(#SVGID_16_)">
			<path fill="#FFFFFF" d="M357.142,295.09c7.165-9.711,16.239-20.696,27.224-31.681c19.9-19.9,38.686-29.452,56.834-30.089
				c18.309-0.797,36.297,6.049,53.648,23.402c17.514,17.512,26.43,37.252,26.27,57.152c0,20.059-11.145,42.029-31.998,62.885
				c-9.871,9.871-18.627,17.672-26.428,23.881L357.142,295.09z M465.876,376.123c4.139-2.865,9.393-7.801,14.805-13.213
				c29.611-29.611,29.135-62.248,0.16-91.223c-25.152-25.472-55.563-27.224-84.854,2.069c-7.164,7.164-11.939,13.214-14.806,17.671
				L465.876,376.123z"/>
		</g>
	</g>
</g>
</svg>
